{"title":"O Teri (2014) 1CD x264 HDTV RIP{VikkyMaxx}[SilverRG]","uid":10099920,"size":857082462,"categoryP":"video","categoryS":"movies","magnet":"?xt=urn:btih:2a9b9621f2c96acd7a669b5354820e0ff49ddbb5&amp;dn=O+Teri+%282014%29+1CD+x264+HDTV+RIP%7BVikkyMaxx%7D%5BSilverRG%5D&amp;tr=udp%3A%2F%2Ftracker.openbittorrent.com%3A80&amp;tr=udp%3A%2F%2Fopen.demonii.com%3A1337&amp;tr=udp%3A%2F%2Ftracker.coppersurfer.tk%3A6969&amp;tr=udp%3A%2F%2Fexodus.desync.com%3A6969","seeders":1,"leechers":0,"uploader":"shailendramaxx","files":22,"time":1399375526,"description":"VikkyMaxx SilverRG Presents\n\n\nGeneral:-\n \nComplete name :O Teri (2014) 1CD x264 HDTV RIP{VikkyMaxx}[SilverRG]\nFormat : Matroska \nFormat version : Version 2 \nFile size : 808 MiB \nDuration : 1h 44mn \nOverall bit rate : 1 083 Kbps \nEncoded date : UTC 2014-05-06 05:17:47 \nWriting application : mkvmerge v6.5.0 ('Isn't she lovely') built on Oct 20 2013 12:50:05 \nWriting library : libebml v1.3.0 + libmatroska v1.4.1 \n\nVideo:-\n \nID : 1 \nFormat : AVC \nFormat/Info : Advanced Video Codec \nFormat profile : &lt;a class=&quot;__cf_email__&quot; href=&quot;/cdn-cgi/l/email-protection&quot; data-cfemail=&quot;1f577678775f532c312f&quot;&gt;[email&amp;#160;protected]&lt;/a&gt;&lt;script cf-hash='f9e31' type=&quot;text/javascript&quot;&gt;\n/* &lt;![CDATA[ */!function(){try{var t=&quot;currentScript&quot;in document?document.currentScript:function(){for(var t=document.getElementsByTagName(&quot;script&quot;),e=t.length;e--;)if(t[e].getAttribute(&quot;cf-hash&quot;))return t[e]}();if(t&amp;&amp;t.previousSibling){var e,r,n,i,c=t.previousSibling,a=c.getAttribute(&quot;data-cfemail&quot;);if(a){for(e=&quot;&quot;,r=parseInt(a.substr(0,2),16),n=2;a.length-n;n+=2)i=parseInt(a.substr(n,2),16)^r,e+=String.fromCharCode(i);e=document.createTextNode(e),c.parentNode.replaceChild(e,c)}}}catch(u){}}();/* ]]&gt; */&lt;/script&gt; \nFormat settings, CABAC : Yes \nFormat settings, ReFrames : 4 frames \nCodec ID : V_MPEG4/ISO/AVC \nDuration : 1h 44mn \nBit rate : 677 Kbps \nWidth : 720 pixels \nHeight : 304 pixels \nDisplay aspect ratio : 2.35:1 \nFrame rate mode : Constant \nFrame rate : 24.000 fps \nColor space : YUV \nChroma subsampling : 4:2:0 \nBit depth : 8 bits \nScan type : Progressive \nBits/(Pixel*Frame) : 0.129 \nStream size : 505 MiB (63%) \nWriting library : x264 core 138 r2358 9e941d1 \nEncoding settings : cabac=1 / ref=3 / deblock=1:0:0 \nDefault : Yes \nForced : No \n\n\n                              \nAudio:-\n \nID : 2 \nFormat : AC-3 \nFormat/Info : Audio Coding 3 \nMode extension : CM (complete main) \nFormat settings, Endianness : Big \nCodec ID : A_AC3 \nDuration : 1h 44mn \nBit rate mode : Constant \nBit rate : 384 Kbps \nChannel(s) : 2 channels \nChannel positions : Front: L R \nSampling rate : 32.0 KHz \nBit depth : 16 bits \nCompression mode : Lossy \nStream size : 286 MiB (35%) \nLanguage : Hindi \nDefault : Yes \nForced : No \n\n\nSCREENS:-\n &lt;a href=&quot;\nhttp://i.imgur.com/Xm6qAFu.jpg&quot; rel=&quot;nofollow&quot; target=&quot;_NEW&quot;&gt;\nhttp://i.imgur.com/Xm6qAFu.jpg&lt;/a&gt;\n &lt;a href=&quot;\nhttp://i.imgur.com/jusRCVQ.jpg&quot; rel=&quot;nofollow&quot; target=&quot;_NEW&quot;&gt;\nhttp://i.imgur.com/jusRCVQ.jpg&lt;/a&gt;\n &lt;a href=&quot;\nhttp://i.imgur.com/zSZJd8b.jpg&quot; rel=&quot;nofollow&quot; target=&quot;_NEW&quot;&gt;\nhttp://i.imgur.com/zSZJd8b.jpg&lt;/a&gt;\n &lt;a href=&quot;\nhttp://i.imgur.com/Omgz9eI.jpg&quot; rel=&quot;nofollow&quot; target=&quot;_NEW&quot;&gt;\nhttp://i.imgur.com/Omgz9eI.jpg&lt;/a&gt;\n &lt;a href=&quot;\nhttp://i.imgur.com/eFVWbbd.jpg&quot; rel=&quot;nofollow&quot; target=&quot;_NEW&quot;&gt;\nhttp://i.imgur.com/eFVWbbd.jpg&lt;/a&gt;\n &lt;a href=&quot;\nhttp://i.imgur.com/mptaAQK.jpg&quot; rel=&quot;nofollow&quot; target=&quot;_NEW&quot;&gt;\nhttp://i.imgur.com/mptaAQK.jpg&lt;/a&gt;\n &lt;a href=&quot;\nhttp://i.imgur.com/1dloG74.jpg&quot; rel=&quot;nofollow&quot; target=&quot;_NEW&quot;&gt;\nhttp://i.imgur.com/1dloG74.jpg&lt;/a&gt;\n &lt;a href=&quot;\nhttp://i.imgur.com/tmj3NVr.jpg&quot; rel=&quot;nofollow&quot; target=&quot;_NEW&quot;&gt;\nhttp://i.imgur.com/tmj3NVr.jpg&lt;/a&gt;\n &lt;a href=&quot;\nhttp://i.imgur.com/SDenHFK.jpg&quot; rel=&quot;nofollow&quot; target=&quot;_NEW&quot;&gt;\nhttp://i.imgur.com/SDenHFK.jpg&lt;/a&gt;\n &lt;a href=&quot;\nhttp://i.imgur.com/yllTws4.jpg&quot; rel=&quot;nofollow&quot; target=&quot;_NEW&quot;&gt;\nhttp://i.imgur.com/yllTws4.jpg&lt;/a&gt;\n\n\n\nSAMPLE AND SCREENSHOTS INCLUDED\n\n    \n             \n             ********** PLEASE SEED AS LONG AS YOU CAN AFTER DOWNLOAD **********\n       \n                    ***** THANK YOU REGARDS - VIKKYMAXX (SilverRG) *****","torrent":{"xt":"urn:btih:2a9b9621f2c96acd7a669b5354820e0ff49ddbb5","amp;dn":"O+Teri+%282014%29+1CD+x264+HDTV+RIP%7BVikkyMaxx%7D%5BSilverRG%5D","amp;tr":["udp%3A%2F%2Ftracker.openbittorrent.com%3A80","udp%3A%2F%2Fopen.demonii.com%3A1337","udp%3A%2F%2Ftracker.coppersurfer.tk%3A6969","udp%3A%2F%2Fexodus.desync.com%3A6969"],"infoHash":"2a9b9621f2c96acd7a669b5354820e0ff49ddbb5","infoHashBuffer":{"type":"Buffer","data":[42,155,150,33,242,201,106,205,122,102,155,83,84,130,14,15,244,157,219,181]},"announce":[],"urlList":[]}}